<svg xmlns="http://www.w3.org/2000/svg" width="20.456" height="20.457" viewBox="0 0 20.456 20.457">
  <path id="_2526450" data-name="2526450" d="M8.492,16.654a.66.66,0,0,0-.933,0L5.83,18.383a.66.66,0,0,0,.933.933l1.729-1.729a.659.659,0,0,0,0-.933ZM3.8,11.964a.659.659,0,0,0-.933,0L1.14,13.693a.66.66,0,0,0,.933.933L3.8,12.9a.66.66,0,0,0,0-.933Zm3.127,1.563a.66.66,0,0,0-.933,0L1.614,17.909a.66.66,0,0,0,.933.933l4.382-4.382A.66.66,0,0,0,6.929,13.528ZM20.423.865,14.17,20a.66.66,0,0,1-1.2.127L8.767,12.9a.66.66,0,0,1,.04-.725l1.51-2.033-2.033,1.51a.66.66,0,0,1-.725.04L.328,7.484a.66.66,0,0,1,.127-1.2L19.591.033a.661.661,0,0,1,.832.832Z" transform="translate(0 0)" fill="#fff"/>
</svg>
