<?xml version="1.0" ?><svg height="16px" version="1.1" viewBox="0 0 18 16" width="18px" xmlns="http://www.w3.org/2000/svg" xmlns:sketch="http://www.bohemiancoding.com/sketch/ns" xmlns:xlink="http://www.w3.org/1999/xlink"><title/><desc/><defs/><g fill="none" fill-rule="evenodd" id="Page-1" stroke="none" stroke-width="1"><g fill="#000000" id="Core" transform="translate(-465.000000, -424.000000)"><g id="store" transform="translate(465.000000, 424.000000)"><path d="M17,0 L1,0 L1,2 L17,2 L17,0 L17,0 Z M18,10 L18,8 L17,3 L1,3 L0,8 L0,10 L1,10 L1,16 L11,16 L11,10 L15,10 L15,16 L17,16 L17,10 L18,10 L18,10 Z M9,14 L3,14 L3,10 L9,10 L9,14 L9,14 Z" id="Shape"/></g></g></g></svg>