<?xml version="1.0" ?><svg data-name="004_ROMANTIC" height="24" id="_004_ROMANTIC" viewBox="0 0 24 24" width="24" xmlns="http://www.w3.org/2000/svg"><title/><path d="M12,21.373c-1.3848-.0009-3.5459-1.6816-4.1748-2.1967a1,1,0,1,1,1.2666-1.5479,7.9269,7.9269,0,0,0,2.9121,1.7446c1.2388-.0585,8.2847-5.1572,8.2847-10.92964a6.51217,6.51217,0,0,0-.25-1.79492A3.68088,3.68088,0,0,0,16.5059,4a3.88133,3.88133,0,0,0-3.5772,2.74463,1.00007,1.00007,0,0,1-1.8569,0A3.88179,3.88179,0,0,0,7.49463,4,3.682,3.682,0,0,0,3.96143,6.648a6.53831,6.53831,0,0,0-.24952,1.79541A10.92792,10.92792,0,0,0,6.41943,14.939a.99971.99971,0,1,1-1.55664,1.2548A12.86383,12.86383,0,0,1,1.71191,8.44336a8.52873,8.52873,0,0,1,.32666-2.34473A5.69047,5.69047,0,0,1,7.49463,2,5.54228,5.54228,0,0,1,12,4.32715,5.54245,5.54245,0,0,1,16.5059,2a5.68919,5.68919,0,0,1,5.4555,4.09814,8.50561,8.50561,0,0,1,.3272,2.34522C22.2886,15.2607,14.3735,21.373,12,21.373Z" style="fill:#333"/></svg>