<?xml version="1.0" ?><svg fill="none" height="28" viewBox="0 0 28 28" width="28" xmlns="http://www.w3.org/2000/svg"><path d="M24.2441 18.373L21.293 21.3232L21.3125 11C21.3125 10.4473 20.8652 10 20.3125 10C19.7617 10 19.3125 10.4473 19.3125 11L19.293 21.2529L16.4141 18.373C16.0234 17.9834 15.3906 17.9834 15 18.373C14.6094 18.7637 14.6094 19.3975 15 19.7881L19.1152 23.9033C19.3887 24.2656 19.8242 24.5 20.3125 24.5C20.6934 24.5 21.0391 24.3594 21.3027 24.127C21.3418 24.0977 21.3789 24.0654 21.4141 24.0303L25.6582 19.7881C26.0488 19.3975 26.0488 18.7637 25.6582 18.373C25.2676 17.9834 24.6348 17.9834 24.2441 18.373Z" fill="black"/><path d="M2 20.7002C2 21.1416 2.35742 21.5 2.80078 21.5H10.6992C10.8906 21.5 11.0664 21.4336 11.2031 21.3223C11.3848 21.1758 11.5 20.9512 11.5 20.7002V20.2998C11.5 19.8584 11.1426 19.5 10.6992 19.5H2.80078C2.56836 19.5 2.35938 19.5977 2.21289 19.7549C2.13086 19.8418 2.07031 19.9473 2.03516 20.0645C2.01172 20.1387 2 20.2178 2 20.2998V20.7002Z" fill="black"/><path d="M2.50586 13.4434C2.42969 13.4131 2.35938 13.3721 2.29688 13.3213C2.11523 13.1748 2 12.9512 2 12.7002V12.2998C2 11.8584 2.35742 11.5 2.80078 11.5H15.1992C15.6426 11.5 16 11.8584 16 12.2998V12.7002C16 13.1416 15.6426 13.5 15.1992 13.5H2.80078C2.69727 13.5 2.59766 13.4795 2.50586 13.4434Z" fill="black"/><path d="M2.07422 5.03516C2.02734 4.93359 2 4.82031 2 4.7002V4.2998C2 4.04492 2.11914 3.81738 2.30469 3.6709C2.44141 3.56348 2.61328 3.5 2.80078 3.5H24.1992C24.6426 3.5 25 3.8584 25 4.2998V4.7002C25 5.1416 24.6426 5.5 24.1992 5.5H2.80078C2.47852 5.5 2.20117 5.30957 2.07422 5.03516Z" fill="black"/></svg>