<?xml version="1.0" ?><svg style="enable-background:new 0 0 64 64;" version="1.1" viewBox="0 0 64 64" xml:space="preserve" xmlns="http://www.w3.org/2000/svg" xmlns:xlink="http://www.w3.org/1999/xlink"><style type="text/css">
	.st0{fill:none;stroke:#000000;stroke-width:2;stroke-linecap:round;stroke-linejoin:round;stroke-miterlimit:10;}
	.st1{fill:none;stroke:#000000;stroke-width:2;stroke-miterlimit:10;}
</style><g id="Layer_1"/><g id="Layer_2"><g><g><g><path class="st0" d="M10.9,22.4L10.9,22.4c-2.2,0-4-1.8-4-4v0c0-2.2,1.8-4,4-4h0c2.2,0,4,1.8,4,4v0      C14.9,20.6,13.1,22.4,10.9,22.4z"/></g><g><path class="st0" d="M10.9,36L10.9,36c-2.2,0-4-1.8-4-4v0c0-2.2,1.8-4,4-4h0c2.2,0,4,1.8,4,4v0C14.9,34.2,13.1,36,10.9,36z"/></g><g><path class="st0" d="M10.9,49.6L10.9,49.6c-2.2,0-4-1.8-4-4v0c0-2.2,1.8-4,4-4h0c2.2,0,4,1.8,4,4v0      C14.9,47.8,13.1,49.6,10.9,49.6z"/></g></g><g><line class="st0" x1="34.6" x2="48.9" y1="14.5" y2="14.5"/><path class="st0" d="M55.7,15.5c0.8,0.7,1.4,1.8,1.4,3v0c0,2.2-1.8,4-4,4H23.9c-2.2,0-4-1.8-4-4v0c0-2.2,1.8-4,4-4h6.3"/><path class="st0" d="M41.1,28.2h12c2.2,0,4,1.8,4,4v0c0,2.2-1.8,4-4,4H23.9c-2.2,0-4-1.8-4-4v0c0-2.2,1.8-4,4-4h9.8"/><path class="st0" d="M26,49.5h-2.1c-0.6,0-1.1-0.1-1.6-0.3"/><path class="st0" d="M19.9,46.1c0-0.2,0-0.4,0-0.6v0c0-2.2,1.8-4,4-4h29.2c2.2,0,4,1.8,4,4v0c0,2.2-1.8,4-4,4H29.2"/></g></g></g></svg>