<svg xmlns="http://www.w3.org/2000/svg" width="22.046" height="18.654" viewBox="0 0 22.046 18.654">
  <g id="cart" transform="translate(0)">
    <path id="Path_207" data-name="Path 207" d="M21.7,38.943a1.553,1.553,0,0,0-1.206-.567H3.692l-.15-1.059A1.549,1.549,0,0,0,2.006,36H.689a.678.678,0,1,0,0,1.357H2.006a.172.172,0,0,1,.171.146l1.86,13.123a1.549,1.549,0,0,0,1.535,1.315h.747a2,2,0,0,0-.118.678,2.067,2.067,0,0,0,4.134,0,2,2,0,0,0-.118-.678H13.9a2,2,0,0,0-.118.678,2.067,2.067,0,0,0,4.134,0,2,2,0,0,0-.118-.678h1.5a.678.678,0,1,0,0-1.357H5.572A.172.172,0,0,1,5.4,50.44L5.23,49.229H18.8a1.553,1.553,0,0,0,1.516-1.206l1.7-7.8A1.5,1.5,0,0,0,21.7,38.943ZM8.956,52.621a.689.689,0,1,1-.689-.678A.684.684,0,0,1,8.956,52.621Zm7.578,0a.689.689,0,1,1-.689-.678A.684.684,0,0,1,16.534,52.621Zm4.129-12.683-1.7,7.8a.173.173,0,0,1-.169.134H5.037l-1.154-8.14H20.5a.168.168,0,0,1,.134.063A.163.163,0,0,1,20.664,39.938Z" transform="translate(0 -36.002)" fill="#474747"/>
  </g>
</svg>
