<svg xmlns="http://www.w3.org/2000/svg" width="17.449" height="17.429" viewBox="0 0 17.449 17.429">
  <path id="Dribbble" d="M1475,7452.174a8.715,8.715,0,1,0,8.725,8.715A8.72,8.72,0,0,0,1475,7452.174Zm5.536,4.016a7.212,7.212,0,0,1,1.713,4.216,36.5,36.5,0,0,0-4.964.06c-.189-.482-.386-.955-.6-1.407A8.786,8.786,0,0,0,1480.539,7456.19Zm-5.536-2.562a7.245,7.245,0,0,1,4.639,1.67,8.993,8.993,0,0,1-3.574,2.523,17.852,17.852,0,0,0-2.853-3.964A7.159,7.159,0,0,1,1475,7453.629Zm-3.289.79a17.5,17.5,0,0,1,2.9,3.931,19.156,19.156,0,0,1-5.529.786c-.38,0-.753-.016-1.123-.036A7.283,7.283,0,0,1,1471.714,7454.418Zm-3.969,6.125c.413.018.831.026,1.256.021a21.522,21.522,0,0,0,6.253-.97q.256.538.491,1.1a4.109,4.109,0,0,0-.65.195,10.855,10.855,0,0,0-5.545,4.789,7.222,7.222,0,0,1-1.818-4.792C1467.732,7460.772,1467.739,7460.657,1467.745,7460.543Zm7.258,7.609a7.232,7.232,0,0,1-4.455-1.532,10.006,10.006,0,0,1,4.872-4.485,4.3,4.3,0,0,1,.79-.238c.258.719.493,1.463.694,2.234a26.019,26.019,0,0,1,.673,3.544A7.226,7.226,0,0,1,1475,7468.152Zm3.93-1.158a26.131,26.131,0,0,0-.678-3.58c-.155-.59-.333-1.162-.521-1.722a31.219,31.219,0,0,1,4.493,0A7.259,7.259,0,0,1,1478.932,7466.994Z" transform="translate(-1466.278 -7452.174)" fill="#5b5b5b"/>
</svg>
