<svg xmlns="http://www.w3.org/2000/svg" width="19.815" height="24.708" viewBox="0 0 19.815 24.708">
  <g id="Group_45" data-name="Group 45" transform="translate(0)">
    <path id="Path_75" data-name="Path 75" d="M48.592,23.707a1.027,1.027,0,0,0,1.045,1H67.362a1.027,1.027,0,0,0,1.045-1c0-5.539-2.612-10.294-6.286-12.2a6.2,6.2,0,0,0,2.943-5.239,6.562,6.562,0,0,0-13.111,0A6.219,6.219,0,0,0,54.9,11.512C51.2,13.414,48.592,18.168,48.592,23.707ZM58.5,2a4.376,4.376,0,0,1,4.457,4.271,4.461,4.461,0,0,1-8.915,0A4.376,4.376,0,0,1,58.5,2Zm0,10.594c4.074,0,7.417,4.455,7.783,10.11H50.716C51.082,17.051,54.425,12.6,58.5,12.6Z" transform="translate(-48.592 0)" fill="#2b2b2b"/>
  </g>
</svg>
