<svg xmlns="http://www.w3.org/2000/svg" width="14.956" height="14.954" viewBox="0 0 14.956 14.954">
  <path id="LinkIn" d="M11.749,14.954v-5.4c0-1.357-.464-2.281-1.624-2.281A1.763,1.763,0,0,0,8.482,8.5a2.354,2.354,0,0,0-.106.817v5.636H5.17s.041-9.144,0-10.09H8.376V6.293a3.163,3.163,0,0,1,2.889-1.667c2.108,0,3.691,1.443,3.691,4.542v5.786Zm-11.558,0V4.864h3.2v10.09ZM1.77,3.488A1.7,1.7,0,0,1,0,1.745,1.707,1.707,0,0,1,1.813,0,1.7,1.7,0,0,1,3.6,1.745,1.706,1.706,0,0,1,1.792,3.488Z" fill="#5b5b5b"/>
</svg>
