<svg id="lovers-heart" xmlns="http://www.w3.org/2000/svg" width="24.079" height="22.237" viewBox="0 0 24.079 22.237">
  <g id="Group_58" data-name="Group 58" transform="translate(0)">
    <path id="Path_110" data-name="Path 110" d="M11.594,39a.985.985,0,0,0,.509.154A.894.894,0,0,0,12.612,39c.416-.278,10.193-6.724,11.3-13.277.571-3.393-.478-5.49-1.45-6.646a6.009,6.009,0,0,0-4.518-2.159,4.382,4.382,0,0,0-1.573.278,11.478,11.478,0,0,0-4.8,3.5,9.8,9.8,0,0,0-4.056-3.161,5.36,5.36,0,0,0-1.743-.278,5.527,5.527,0,0,0-4.1,1.789c-.91,1-1.943,2.915-1.619,6.246C.707,31.846,11.147,38.708,11.594,39ZM3.051,20.28a3.657,3.657,0,0,1,2.73-1.187,3.471,3.471,0,0,1,1.141.185c2.144.725,3.855,3.454,3.886,3.47a.9.9,0,0,0,.8.432.934.934,0,0,0,.786-.463,9.776,9.776,0,0,1,4.642-3.809,2.811,2.811,0,0,1,.91-.154,4.171,4.171,0,0,1,3.1,1.511,6.126,6.126,0,0,1,1.033,5.151c-.4,2.344-2.313,5.151-5.536,8.127A44.043,44.043,0,0,1,12.1,37.1a46.279,46.279,0,0,1-4.7-3.747c-3.362-3.084-5.259-5.937-5.49-8.25C1.71,22.994,2.1,21.328,3.051,20.28Z" transform="translate(0.001 -16.918)" fill="#939aa2"/>
  </g>
</svg>
