<svg xmlns="http://www.w3.org/2000/svg" width="13.999" height="11.527" viewBox="0 0 13.999 11.527">
  <g id="message" transform="translate(0 -0.5)">
    <path id="Path_96" data-name="Path 96" d="M11.128.5H2.871A2.874,2.874,0,0,0,0,3.371V7.8A2.824,2.824,0,0,0,2.031,10.52l1.387,1.387a.41.41,0,0,0,.58,0L5.27,10.635h5.858A2.874,2.874,0,0,0,14,7.764V3.371A2.874,2.874,0,0,0,11.128.5Zm2.051,7.264a2.053,2.053,0,0,1-2.051,2.051H5.1a.41.41,0,0,0-.29.12l-1.1,1.1L2.534,9.863a.41.41,0,0,0-.191-.108A2.006,2.006,0,0,1,.82,7.8V3.371A2.053,2.053,0,0,1,2.871,1.32h8.257a2.053,2.053,0,0,1,2.051,2.051Zm0,0" fill="#919191"/>
    <path id="Path_97" data-name="Path 97" d="M151.376,144.328h-5.208a.41.41,0,1,0,0,.82h5.208a.41.41,0,1,0,0-.82Zm0,0" transform="translate(-141.773 -139.896)" fill="#919191"/>
    <path id="Path_98" data-name="Path 98" d="M151.376,197.352h-5.208a.41.41,0,1,0,0,.82h5.208a.41.41,0,1,0,0-.82Zm0,0" transform="translate(-141.773 -191.47)" fill="#919191"/>
  </g>
</svg>
