<svg xmlns="http://www.w3.org/2000/svg" width="26.187" height="23.767" viewBox="0 0 26.187 23.767">
  <g id="online-shopping-cart" transform="translate(0 0)">
    <g id="Group_53" data-name="Group 53" transform="translate(0 0)">
      <path id="Path_104" data-name="Path 104" d="M.969,23.169H3.746L7.7,37.474a.969.969,0,0,0,.936.71H20.8a.971.971,0,0,0,.888-.581l4.424-10.172a.98.98,0,0,0-.081-.92.962.962,0,0,0-.807-.436H11.787a.969.969,0,1,0,0,1.938H23.735l-3.584,8.235H9.365L5.409,21.941a.969.969,0,0,0-.936-.71H.969a.969.969,0,0,0,0,1.938Z" transform="translate(0 -21.231)" fill="#2b2b2b"/>
      <path id="Path_105" data-name="Path 105" d="M99.1,365.624a2.2,2.2,0,1,0-2.2-2.2A2.2,2.2,0,0,0,99.1,365.624Z" transform="translate(-91.378 -341.857)" fill="#2b2b2b"/>
      <path id="Path_106" data-name="Path 106" d="M340.114,365.541h.161a2.271,2.271,0,1,0-.161,0Z" transform="translate(-318.672 -341.774)" fill="#2b2b2b"/>
    </g>
  </g>
</svg>
