<svg xmlns="http://www.w3.org/2000/svg" width="17.449" height="13.717" viewBox="0 0 17.449 13.717">
  <path id="Twitter" d="M1436.2,7456.377a7.423,7.423,0,0,1-2.056.544,3.492,3.492,0,0,0,1.574-1.917,7.277,7.277,0,0,1-2.273.842,3.626,3.626,0,0,0-2.613-1.095,3.524,3.524,0,0,0-3.58,3.464,3.379,3.379,0,0,0,.093.79,10.29,10.29,0,0,1-7.379-3.619,3.368,3.368,0,0,0-.485,1.743,3.432,3.432,0,0,0,1.592,2.88,3.672,3.672,0,0,1-1.621-.433c0,.015,0,.029,0,.043a3.5,3.5,0,0,0,2.872,3.395,3.68,3.68,0,0,1-.943.123,3.556,3.556,0,0,1-.673-.063,3.568,3.568,0,0,0,3.344,2.4,7.332,7.332,0,0,1-4.446,1.482,7.569,7.569,0,0,1-.854-.048,10.378,10.378,0,0,0,5.488,1.556,9.943,9.943,0,0,0,10.185-9.852c0-.151,0-.3-.01-.448A7.175,7.175,0,0,0,1436.2,7456.377Z" transform="translate(-1418.754 -7454.752)" fill="#5b5b5b"/>
</svg>
