<svg xmlns="http://www.w3.org/2000/svg" width="15.111" height="13.162" viewBox="0 0 15.111 13.162">
  <path id="writer" d="M.443,53.024H2.532l1.151-3.579a.483.483,0,0,1,.107-.179l7.8-8.084a1.3,1.3,0,0,1,1.878,0l1.252,1.3a1.413,1.413,0,0,1,0,1.946l-7.8,8.084a.461.461,0,0,1-.173.111l-3.757,1.3a.457.457,0,0,1-.14.024H.443a.459.459,0,0,1,0-.917Zm6.165-1.487,6.55-6.786-.626-.649-6.55,6.786Zm-1.252-1.3,6.55-6.786-.626-.649L4.729,49.59ZM14.1,43.129l-1.252-1.3a.432.432,0,0,0-.626,0l-.313.324L13.783,44.1l.313-.324A.471.471,0,0,0,14.1,43.129ZM5.788,51.985,4.3,50.44l-.746,2.318Z" transform="translate(0 -40.779)" fill="#919191"/>
</svg>
